<svg width="57" height="57" viewBox="0 0 57 57" fill="none" xmlns="http://www.w3.org/2000/svg">
<ellipse cx="27.9694" cy="27.9322" rx="27.9694" ry="27.9322" transform="matrix(0.999995 -0.00327446 0.00222668 0.999998 0.0100098 0.263108)" fill="#FAC638"/>
<mask id="path-2-inside-1_127_78" fill="white">
<path d="M29.2622 29.2301L39.1472 29.2035C39.3169 29.2161 39.4875 29.1936 39.648 29.1373C39.8086 29.081 39.9559 28.9921 40.0804 28.8763C40.205 28.7604 40.3043 28.6201 40.372 28.464C40.4397 28.308 40.4744 28.1397 40.4739 27.9696C40.4735 27.7996 40.4378 27.6314 40.3692 27.4758C40.3006 27.3201 40.2006 27.1803 40.0753 27.0651C39.9501 26.95 39.8024 26.8619 39.6415 26.8064C39.4806 26.751 39.3099 26.7294 39.1403 26.7429L29.2552 26.7695L29.2275 16.8924C29.2026 16.5826 29.0617 16.2936 28.8328 16.0831C28.604 15.8726 28.304 15.7561 27.993 15.757C27.682 15.7578 27.3827 15.8759 27.155 16.0876C26.9274 16.2993 26.7881 16.5891 26.7649 16.8991L26.7927 26.7761L16.9077 26.8027C16.5814 26.8046 16.2692 26.9353 16.0391 27.1665C15.8091 27.3976 15.6799 27.7103 15.6799 28.0363C15.6818 28.3623 15.8127 28.6743 16.044 28.9042C16.2754 29.1341 16.5884 29.2632 16.9146 29.2633L26.7996 29.2367L26.8274 39.1138C26.8293 39.4398 26.9602 39.7518 27.1916 39.9817C27.4229 40.2116 27.7359 40.3407 28.0621 40.3407C28.3884 40.3389 28.7006 40.2081 28.9307 39.977C29.1607 39.7459 29.2899 39.4332 29.2899 39.1072L29.2622 29.2301Z"/>
</mask>
<path d="M29.2622 29.2301L39.1472 29.2035C39.3169 29.2161 39.4875 29.1936 39.648 29.1373C39.8086 29.081 39.9559 28.9921 40.0804 28.8763C40.205 28.7604 40.3043 28.6201 40.372 28.464C40.4397 28.308 40.4744 28.1397 40.4739 27.9696C40.4735 27.7996 40.4378 27.6314 40.3692 27.4758C40.3006 27.3201 40.2006 27.1803 40.0753 27.0651C39.9501 26.95 39.8024 26.8619 39.6415 26.8064C39.4806 26.751 39.3099 26.7294 39.1403 26.7429L29.2552 26.7695L29.2275 16.8924C29.2026 16.5826 29.0617 16.2936 28.8328 16.0831C28.604 15.8726 28.304 15.7561 27.993 15.757C27.682 15.7578 27.3827 15.8759 27.155 16.0876C26.9274 16.2993 26.7881 16.5891 26.7649 16.8991L26.7927 26.7761L16.9077 26.8027C16.5814 26.8046 16.2692 26.9353 16.0391 27.1665C15.8091 27.3976 15.6799 27.7103 15.6799 28.0363C15.6818 28.3623 15.8127 28.6743 16.044 28.9042C16.2754 29.1341 16.5884 29.2632 16.9146 29.2633L26.7996 29.2367L26.8274 39.1138C26.8293 39.4398 26.9602 39.7518 27.1916 39.9817C27.4229 40.2116 27.7359 40.3407 28.0621 40.3407C28.3884 40.3389 28.7006 40.2081 28.9307 39.977C29.1607 39.7459 29.2899 39.4332 29.2899 39.1072L29.2622 29.2301Z" fill="white"/>
<path d="M29.2622 29.2301L29.2568 26.7311L26.7541 26.7378L26.7612 29.2384L29.2622 29.2301ZM39.1472 29.2035L39.3347 26.7114L39.2384 26.7042L39.1418 26.7045L39.1472 29.2035ZM39.1403 26.7429L39.1457 29.2419L39.2423 29.2417L39.3386 29.234L39.1403 26.7429ZM29.2552 26.7695L26.7543 26.7779L26.7613 29.2752L29.2607 29.2685L29.2552 26.7695ZM29.2275 16.8924L31.7285 16.8841L31.7282 16.7876L31.7205 16.6914L29.2275 16.8924ZM26.7649 16.8991L24.2709 16.7146L24.2637 16.8109L24.264 16.9074L26.7649 16.8991ZM26.7927 26.7761L26.7981 29.2751L29.3007 29.2684L29.2937 26.7678L26.7927 26.7761ZM16.9077 26.8027L16.9023 24.3037L16.8948 24.3038L16.9077 26.8027ZM15.6799 28.0363L13.1789 28.0372L13.1789 28.0447L13.1789 28.0521L15.6799 28.0363ZM16.9146 29.2633L16.9126 31.7623L16.92 31.7623L16.9146 29.2633ZM26.7996 29.2367L29.3006 29.2284L29.2936 26.731L26.7942 26.7377L26.7996 29.2367ZM26.8274 39.1138L24.3264 39.1221L24.3265 39.1296L26.8274 39.1138ZM28.0621 40.3407L28.0601 42.8397L28.0676 42.8397L28.075 42.8397L28.0621 40.3407ZM29.2899 39.1072L31.791 39.1063L31.7909 39.0988L29.2899 39.1072ZM29.2622 29.2301L29.2676 31.7291L39.1526 31.7025L39.1472 29.2035L39.1418 26.7045L29.2568 26.7311L29.2622 29.2301ZM39.1472 29.2035L38.9597 31.6955C39.4731 31.7338 39.989 31.6657 40.4751 31.4953L39.648 29.1373L38.821 26.7793C38.9859 26.7215 39.1608 26.6984 39.3347 26.7114L39.1472 29.2035ZM39.648 29.1373L40.4751 31.4953C40.9611 31.3249 41.4067 31.0559 41.7838 30.7051L40.0804 28.8763L38.377 27.0474C38.505 26.9284 38.6562 26.8371 38.821 26.7793L39.648 29.1373ZM40.0804 28.8763L41.7838 30.7051C42.161 30.3544 42.4615 29.9296 42.6664 29.4573L40.372 28.464L38.0776 27.4707C38.1471 27.3106 38.249 27.1664 38.377 27.0474L40.0804 28.8763ZM40.372 28.464L42.6664 29.4573C42.8714 28.9851 42.9764 28.4758 42.9749 27.9613L40.4739 27.9696L37.973 27.978C37.9725 27.8036 38.0081 27.6309 38.0776 27.4707L40.372 28.464ZM40.4739 27.9696L42.9749 27.9613C42.9735 27.4468 42.8656 26.9383 42.6582 26.4677L40.3692 27.4758L38.0802 28.4839C38.01 28.3246 37.9734 28.1523 37.973 27.978L40.4739 27.9696ZM40.3692 27.4758L42.6582 26.4677C42.4508 25.997 42.1483 25.5744 41.7697 25.2261L40.0753 27.0651L38.381 28.9041C38.2528 28.7863 38.1504 28.6432 38.0802 28.4839L40.3692 27.4758ZM40.0753 27.0651L41.7697 25.2261C41.3911 24.8779 40.9445 24.6116 40.458 24.4439L39.6415 26.8064L38.825 29.1689C38.6603 29.1122 38.5091 29.022 38.381 28.9041L40.0753 27.0651ZM39.6415 26.8064L40.458 24.4439C39.9714 24.2762 39.4553 24.2108 38.942 24.2519L39.1403 26.7429L39.3386 29.234C39.1646 29.2479 38.9898 29.2257 38.825 29.1689L39.6415 26.8064ZM39.1403 26.7429L39.1349 24.2439L29.2498 24.2705L29.2552 26.7695L29.2607 29.2685L39.1457 29.2419L39.1403 26.7429ZM29.2552 26.7695L31.7562 26.7612L31.7285 16.8841L29.2275 16.8924L26.7265 16.9008L26.7543 26.7779L29.2552 26.7695ZM29.2275 16.8924L31.7205 16.6914C31.6453 15.7543 31.219 14.8804 30.5272 14.2441L28.8328 16.0831L27.1384 17.9221C26.9043 17.7068 26.76 17.411 26.7345 17.0935L29.2275 16.8924ZM28.8328 16.0831L30.5272 14.2441C29.8354 13.6078 28.9285 13.2555 27.9876 13.258L27.993 15.757L27.9984 18.256C27.6796 18.2568 27.3726 18.1375 27.1384 17.9221L28.8328 16.0831ZM27.993 15.757L27.9876 13.258C27.0466 13.2605 26.1409 13.6178 25.4516 14.2588L27.155 16.0876L28.8585 17.9165C28.6246 18.134 28.3173 18.2551 27.9984 18.256L27.993 15.757ZM27.155 16.0876L25.4516 14.2588C24.7624 14.8997 24.3408 15.7769 24.2709 16.7146L26.7649 16.8991L29.259 17.0835C29.2353 17.4014 29.0924 17.6989 28.8585 17.9165L27.155 16.0876ZM26.7649 16.8991L24.264 16.9074L24.2917 26.7845L26.7927 26.7761L29.2937 26.7678L29.2659 16.8907L26.7649 16.8991ZM26.7927 26.7761L26.7873 24.2772L16.9023 24.3037L16.9077 26.8027L16.9131 29.3017L26.7981 29.2751L26.7927 26.7761ZM16.9077 26.8027L16.8948 24.3038C15.9078 24.3094 14.9627 24.705 14.2663 25.4047L16.0391 27.1665L17.812 28.9282C17.5756 29.1657 17.255 29.2998 16.9205 29.3017L16.9077 26.8027ZM16.0391 27.1665L14.2663 25.4047C13.5698 26.1045 13.179 27.051 13.1789 28.0372L15.6799 28.0363L18.1809 28.0354C18.1808 28.3696 18.0484 28.6907 17.812 28.9282L16.0391 27.1665ZM15.6799 28.0363L13.1789 28.0521C13.1846 29.0382 13.5806 29.9816 14.28 30.6766L16.044 28.9042L17.8081 27.1318C18.0448 27.367 18.1789 27.6864 18.1808 28.0205L15.6799 28.0363ZM16.044 28.9042L14.28 30.6766C14.9793 31.3715 15.9256 31.762 16.9126 31.7623L16.9146 29.2633L16.9166 26.7643C17.2511 26.7644 17.5714 26.8967 17.8081 27.1318L16.044 28.9042ZM16.9146 29.2633L16.92 31.7623L26.8051 31.7357L26.7996 29.2367L26.7942 26.7377L16.9092 26.7643L16.9146 29.2633ZM26.7996 29.2367L24.2987 29.245L24.3264 39.1221L26.8274 39.1138L29.3284 39.1054L29.3006 29.2284L26.7996 29.2367ZM26.8274 39.1138L24.3265 39.1296C24.3322 40.1157 24.7282 41.0591 25.4275 41.754L27.1916 39.9817L28.9556 38.2093C29.1923 38.4445 29.3264 38.7638 29.3284 39.098L26.8274 39.1138ZM27.1916 39.9817L25.4275 41.754C26.1268 42.449 27.0732 42.8395 28.0601 42.8397L28.0621 40.3407L28.0642 37.8417C28.3986 37.8418 28.719 37.9741 28.9556 38.2093L27.1916 39.9817ZM28.0621 40.3407L28.075 42.8397C29.062 42.8341 30.0071 42.4385 30.7036 41.7387L28.9307 39.977L27.1578 38.2153C27.3942 37.9778 27.7148 37.8437 28.0493 37.8418L28.0621 40.3407ZM28.9307 39.977L30.7036 41.7387C31.4 41.039 31.7908 40.0925 31.7909 39.1063L29.2899 39.1072L26.7889 39.1081C26.789 38.7738 26.9215 38.4527 27.1578 38.2153L28.9307 39.977ZM29.2899 39.1072L31.7909 39.0988L31.7632 29.2217L29.2622 29.2301L26.7612 29.2384L26.789 39.1155L29.2899 39.1072Z" fill="#101820" mask="url(#path-2-inside-1_127_78)"/>
</svg>
