<svg width="57" height="57" viewBox="0 0 57 57" fill="none" xmlns="http://www.w3.org/2000/svg">
<ellipse cx="27.9694" cy="27.9322" rx="27.9694" ry="27.9322" transform="matrix(0.999995 -0.00327446 0.00222668 0.999998 0.0100098 0.263184)" fill="#C6C6C6"/>
<mask id="path-2-inside-1_24_107" fill="white">
<path d="M29.2619 29.2301L39.147 29.2036C39.3167 29.2162 39.4872 29.1937 39.6478 29.1374C39.8084 29.0811 39.9556 28.9922 40.0802 28.8763C40.2048 28.7605 40.304 28.6201 40.3718 28.4641C40.4395 28.3081 40.4742 28.1398 40.4737 27.9697C40.4732 27.7996 40.4376 27.6315 40.369 27.4759C40.3004 27.3202 40.2003 27.1804 40.0751 27.0652C39.9499 26.95 39.8022 26.8619 39.6412 26.8065C39.4803 26.7511 39.3097 26.7294 39.14 26.743L29.255 26.7696L29.2272 16.8925C29.2024 16.5827 29.0614 16.2937 28.8326 16.0832C28.6037 15.8727 28.3038 15.7562 27.9928 15.757C27.6817 15.7579 27.3825 15.876 27.1548 16.0877C26.9271 16.2994 26.7878 16.5892 26.7647 16.8991L26.7925 26.7762L16.9074 26.8028C16.5812 26.8046 16.2689 26.9354 16.0389 27.1665C15.8088 27.3977 15.6797 27.7104 15.6796 28.0364C15.6815 28.3624 15.8124 28.6744 16.0438 28.9043C16.2751 29.1342 16.5881 29.2633 16.9144 29.2633L26.7994 29.2368L26.8272 39.1139C26.8291 39.4398 26.96 39.7519 27.1913 39.9817C27.4227 40.2116 27.7356 40.3407 28.0619 40.3408C28.3882 40.339 28.7004 40.2082 28.9304 39.9771C29.1605 39.7459 29.2897 39.4332 29.2897 39.1072L29.2619 29.2301Z"/>
</mask>
<path d="M29.2619 29.2301L39.147 29.2036C39.3167 29.2162 39.4872 29.1937 39.6478 29.1374C39.8084 29.0811 39.9556 28.9922 40.0802 28.8763C40.2048 28.7605 40.304 28.6201 40.3718 28.4641C40.4395 28.3081 40.4742 28.1398 40.4737 27.9697C40.4732 27.7996 40.4376 27.6315 40.369 27.4759C40.3004 27.3202 40.2003 27.1804 40.0751 27.0652C39.9499 26.95 39.8022 26.8619 39.6412 26.8065C39.4803 26.7511 39.3097 26.7294 39.14 26.743L29.255 26.7696L29.2272 16.8925C29.2024 16.5827 29.0614 16.2937 28.8326 16.0832C28.6037 15.8727 28.3038 15.7562 27.9928 15.757C27.6817 15.7579 27.3825 15.876 27.1548 16.0877C26.9271 16.2994 26.7878 16.5892 26.7647 16.8991L26.7925 26.7762L16.9074 26.8028C16.5812 26.8046 16.2689 26.9354 16.0389 27.1665C15.8088 27.3977 15.6797 27.7104 15.6796 28.0364C15.6815 28.3624 15.8124 28.6744 16.0438 28.9043C16.2751 29.1342 16.5881 29.2633 16.9144 29.2633L26.7994 29.2368L26.8272 39.1139C26.8291 39.4398 26.96 39.7519 27.1913 39.9817C27.4227 40.2116 27.7356 40.3407 28.0619 40.3408C28.3882 40.339 28.7004 40.2082 28.9304 39.9771C29.1605 39.7459 29.2897 39.4332 29.2897 39.1072L29.2619 29.2301Z" fill="white"/>
<path d="M29.2619 29.2301L29.2565 26.7312L26.7539 26.7379L26.7609 29.2385L29.2619 29.2301ZM39.147 29.2036L39.3345 26.7115L39.2381 26.7043L39.1415 26.7046L39.147 29.2036ZM39.14 26.743L39.1455 29.242L39.2421 29.2417L39.3384 29.234L39.14 26.743ZM29.255 26.7696L26.754 26.7779L26.761 29.2753L29.2604 29.2686L29.255 26.7696ZM29.2272 16.8925L31.7282 16.8842L31.7279 16.7876L31.7202 16.6914L29.2272 16.8925ZM26.7647 16.8991L24.2706 16.7147L24.2634 16.8109L24.2637 16.9075L26.7647 16.8991ZM26.7925 26.7762L26.7979 29.2752L29.3005 29.2685L29.2935 26.7679L26.7925 26.7762ZM16.9074 26.8028L16.902 24.3038L16.8946 24.3038L16.9074 26.8028ZM15.6796 28.0364L13.1786 28.0373L13.1786 28.0447L13.1787 28.0522L15.6796 28.0364ZM16.9144 29.2633L16.9123 31.7624L16.9198 31.7623L16.9144 29.2633ZM26.7994 29.2368L29.3004 29.2284L29.2934 26.7311L26.794 26.7378L26.7994 29.2368ZM26.8272 39.1139L24.3262 39.1222L24.3262 39.1296L26.8272 39.1139ZM28.0619 40.3408L28.0599 42.8398L28.0673 42.8398L28.0748 42.8398L28.0619 40.3408ZM29.2897 39.1072L31.7907 39.1063L31.7907 39.0989L29.2897 39.1072ZM29.2619 29.2301L29.2673 31.7291L39.1524 31.7025L39.147 29.2036L39.1415 26.7046L29.2565 26.7312L29.2619 29.2301ZM39.147 29.2036L38.9594 31.6956C39.4729 31.7339 39.9888 31.6658 40.4748 31.4954L39.6478 29.1374L38.8208 26.7794C38.9856 26.7216 39.1605 26.6985 39.3345 26.7115L39.147 29.2036ZM39.6478 29.1374L40.4748 31.4954C40.9609 31.3249 41.4065 31.0559 41.7836 30.7052L40.0802 28.8763L38.3768 27.0475C38.5048 26.9285 38.6559 26.8372 38.8208 26.7794L39.6478 29.1374ZM40.0802 28.8763L41.7836 30.7052C42.1607 30.3545 42.4612 29.9296 42.6662 29.4574L40.3718 28.4641L38.0773 27.4708C38.1469 27.3106 38.2488 27.1665 38.3768 27.0475L40.0802 28.8763ZM40.3718 28.4641L42.6662 29.4574C42.8711 28.9852 42.9761 28.4759 42.9747 27.9614L40.4737 27.9697L37.9727 27.978C37.9722 27.8037 38.0078 27.631 38.0773 27.4708L40.3718 28.4641ZM40.4737 27.9697L42.9747 27.9614C42.9732 27.4469 42.8654 26.9384 42.658 26.4677L40.369 27.4759L38.08 28.484C38.0098 28.3246 37.9732 28.1524 37.9727 27.978L40.4737 27.9697ZM40.369 27.4759L42.658 26.4677C42.4506 25.9971 42.1481 25.5744 41.7695 25.2262L40.0751 27.0652L38.3807 28.9042C38.2526 28.7864 38.1502 28.6433 38.08 28.484L40.369 27.4759ZM40.0751 27.0652L41.7695 25.2262C41.3909 24.878 40.9443 24.6117 40.4577 24.444L39.6412 26.8065L38.8248 29.169C38.66 29.1122 38.5088 29.0221 38.3807 28.9042L40.0751 27.0652ZM39.6412 26.8065L40.4577 24.444C39.9711 24.2763 39.455 24.2109 38.9417 24.252L39.14 26.743L39.3384 29.234C39.1644 29.248 38.9895 29.2258 38.8248 29.169L39.6412 26.8065ZM39.14 26.743L39.1346 24.244L29.2496 24.2706L29.255 26.7696L29.2604 29.2686L39.1455 29.242L39.14 26.743ZM29.255 26.7696L31.756 26.7613L31.7282 16.8842L29.2272 16.8925L26.7262 16.9008L26.754 26.7779L29.255 26.7696ZM29.2272 16.8925L31.7202 16.6914C31.645 15.7544 31.2188 14.8805 30.5269 14.2442L28.8326 16.0832L27.1382 17.9222C26.9041 17.7069 26.7597 17.411 26.7342 17.0936L29.2272 16.8925ZM28.8326 16.0832L30.5269 14.2442C29.8351 13.6078 28.9283 13.2555 27.9873 13.2581L27.9928 15.757L27.9982 18.256C27.6793 18.2569 27.3723 18.1375 27.1382 17.9222L28.8326 16.0832ZM27.9928 15.757L27.9873 13.2581C27.0464 13.2606 26.1406 13.6178 25.4514 14.2588L27.1548 16.0877L28.8582 17.9166C28.6243 18.1341 28.3171 18.2552 27.9982 18.256L27.9928 15.757ZM27.1548 16.0877L25.4514 14.2588C24.7621 14.8998 24.3406 15.777 24.2706 16.7147L26.7647 16.8991L29.2588 17.0836C29.2351 17.4015 29.0921 17.699 28.8582 17.9166L27.1548 16.0877ZM26.7647 16.8991L24.2637 16.9075L24.2915 26.7846L26.7925 26.7762L29.2935 26.7679L29.2657 16.8908L26.7647 16.8991ZM26.7925 26.7762L26.7871 24.2772L16.902 24.3038L16.9074 26.8028L16.9129 29.3018L26.7979 29.2752L26.7925 26.7762ZM16.9074 26.8028L16.8946 24.3038C15.9076 24.3094 14.9625 24.7051 14.266 25.4048L16.0389 27.1665L17.8118 28.9283C17.5754 29.1657 17.2548 29.2999 16.9203 29.3018L16.9074 26.8028ZM16.0389 27.1665L14.266 25.4048C13.5696 26.1046 13.1788 27.0511 13.1786 28.0373L15.6796 28.0364L18.1806 28.0355C18.1806 28.3697 18.0481 28.6908 17.8118 28.9283L16.0389 27.1665ZM15.6796 28.0364L13.1787 28.0522C13.1844 29.0383 13.5804 29.9817 14.2797 30.6767L16.0438 28.9043L17.8079 27.1319C18.0445 27.3671 18.1787 27.6865 18.1806 28.0206L15.6796 28.0364ZM16.0438 28.9043L14.2797 30.6767C14.9791 31.3716 15.9254 31.7621 16.9123 31.7623L16.9144 29.2633L16.9164 26.7643C17.2508 26.7644 17.5712 26.8967 17.8079 27.1319L16.0438 28.9043ZM16.9144 29.2633L16.9198 31.7623L26.8048 31.7358L26.7994 29.2368L26.794 26.7378L16.909 26.7644L16.9144 29.2633ZM26.7994 29.2368L24.2984 29.2451L24.3262 39.1222L26.8272 39.1139L29.3282 39.1055L29.3004 29.2284L26.7994 29.2368ZM26.8272 39.1139L24.3262 39.1296C24.3319 40.1158 24.7279 41.0592 25.4273 41.7541L27.1913 39.9817L28.9554 38.2094C29.192 38.4445 29.3262 38.7639 29.3281 39.0981L26.8272 39.1139ZM27.1913 39.9817L25.4273 41.7541C26.1266 42.4491 27.0729 42.8395 28.0599 42.8398L28.0619 40.3408L28.0639 37.8418C28.3984 37.8419 28.7187 37.9742 28.9554 38.2094L27.1913 39.9817ZM28.0619 40.3408L28.0748 42.8398C29.0618 42.8342 30.0069 42.4385 30.7033 41.7388L28.9304 39.9771L27.1576 38.2153C27.3939 37.9779 27.7145 37.8438 28.049 37.8419L28.0619 40.3408ZM28.9304 39.9771L30.7033 41.7388C31.3998 41.0391 31.7905 40.0926 31.7907 39.1063L29.2897 39.1072L26.7887 39.1081C26.7888 38.7739 26.9212 38.4528 27.1576 38.2153L28.9304 39.9771ZM29.2897 39.1072L31.7907 39.0989L31.7629 29.2218L29.2619 29.2301L26.7609 29.2385L26.7887 39.1156L29.2897 39.1072Z" fill="#101820" mask="url(#path-2-inside-1_24_107)"/>
</svg>
