<svg width="35" height="35" viewBox="0 0 35 35" fill="none" xmlns="http://www.w3.org/2000/svg">
<path d="M21.2223 19.7305V20.8818C21.2223 21.6377 21.1057 22.3863 20.8793 23.0847C20.6528 23.7831 20.3209 24.4177 19.9025 24.9522C19.4841 25.4867 18.9873 25.9107 18.4406 26.2C17.8939 26.4893 17.308 26.6382 16.7163 26.6382H13.7783C13.7644 27.2678 13.616 27.8806 13.3492 28.4102C13.0823 28.9399 12.7072 29.3662 12.2643 29.6431C11.895 29.8788 11.4876 30.001 11.0747 30C10.464 30.0046 9.86995 29.7449 9.38947 29.2632L6.04601 25.9129C5.72037 25.5901 5.45684 25.1764 5.27554 24.7034C5.09425 24.2305 5 23.7109 5 23.1843C5 22.6578 5.09425 22.1382 5.27554 21.6652C5.45684 21.1923 5.72037 20.7786 6.04601 20.4558L9.38947 17.1055C9.79231 16.6948 10.2786 16.4398 10.7912 16.3704C11.3037 16.3011 11.8211 16.4203 12.2823 16.7141C12.8965 17.0894 13.3695 17.7599 13.5981 18.5792H20.294C20.4146 18.5746 20.5347 18.6009 20.6472 18.6567C20.7597 18.7125 20.8623 18.7966 20.9488 18.9039C21.0354 19.0113 21.1042 19.1398 21.1512 19.2818C21.1982 19.4238 21.2223 19.5763 21.2223 19.7305Z" fill="#FAC638"/>
<path d="M30 11.8326C30.0001 12.3591 29.9059 12.8786 29.7247 13.3515C29.5435 13.8244 29.2801 14.2382 28.9546 14.5611L25.6111 17.9114C25.1239 18.395 24.5248 18.6582 23.9078 18.6597C23.495 18.6608 23.0876 18.5385 22.7183 18.3028C22.1041 17.9275 21.6311 17.257 21.4025 16.4377H14.6795C14.4405 16.4377 14.2113 16.3164 14.0423 16.1005C13.8733 15.8846 13.7783 15.5918 13.7783 15.2864V14.1351C13.7783 12.6084 14.2531 11.1443 15.0981 10.0647C15.9431 8.98517 17.0893 8.37869 18.2843 8.37869H21.2223C21.2332 7.73506 21.3848 7.10816 21.6598 6.56873C21.9349 6.02929 22.3225 5.59881 22.7789 5.32584C23.2353 5.05287 23.7423 4.9483 24.2428 5.02391C24.7432 5.09952 25.2172 5.35231 25.6111 5.75375L28.9546 9.104C29.2801 9.42693 29.5435 9.84066 29.7247 10.3136C29.9059 10.7865 30.0001 11.306 30 11.8326Z" fill="#FAC638"/>
</svg>
