<svg width="35" height="35" viewBox="0 0 35 35" fill="none" xmlns="http://www.w3.org/2000/svg">
<path d="M21.2223 19.7304V20.8816C21.2223 21.6376 21.1057 22.3861 20.8793 23.0845C20.6528 23.7829 20.3209 24.4175 19.9025 24.9521C19.4841 25.4866 18.9873 25.9106 18.4406 26.1999C17.8939 26.4892 17.308 26.6381 16.7163 26.6381H13.7783C13.7644 27.2677 13.616 27.8805 13.3492 28.4101C13.0823 28.9397 12.7072 29.3661 12.2643 29.643C11.895 29.8787 11.4876 30.0009 11.0747 29.9999C10.464 30.0045 9.86995 29.7448 9.38947 29.263L6.04601 25.9128C5.72037 25.5899 5.45684 25.1762 5.27554 24.7033C5.09425 24.2304 5 23.7108 5 23.1842C5 22.6576 5.09425 22.138 5.27554 21.6651C5.45684 21.1922 5.72037 20.7785 6.04601 20.4557L9.38947 17.1054C9.79231 16.6947 10.2786 16.4396 10.7912 16.3703C11.3037 16.3009 11.8211 16.4202 12.2823 16.714C12.8965 17.0893 13.3695 17.7598 13.5981 18.5791H20.294C20.4146 18.5744 20.5347 18.6008 20.6472 18.6566C20.7597 18.7124 20.8623 18.7964 20.9488 18.9038C21.0354 19.0112 21.1042 19.1397 21.1512 19.2817C21.1982 19.4236 21.2223 19.5762 21.2223 19.7304Z" fill="#5595FF"/>
<path d="M30 11.8326C30.0001 12.3591 29.9059 12.8786 29.7247 13.3515C29.5435 13.8244 29.2801 14.2382 28.9546 14.5611L25.6111 17.9114C25.1239 18.395 24.5248 18.6582 23.9078 18.6597C23.495 18.6608 23.0876 18.5385 22.7183 18.3028C22.1041 17.9275 21.6311 17.257 21.4025 16.4377H14.6795C14.4405 16.4377 14.2113 16.3164 14.0423 16.1005C13.8733 15.8846 13.7783 15.5918 13.7783 15.2864V14.1351C13.7783 12.6084 14.2531 11.1443 15.0981 10.0647C15.9431 8.98517 17.0893 8.37869 18.2843 8.37869H21.2223C21.2332 7.73506 21.3848 7.10816 21.6598 6.56873C21.9349 6.02929 22.3225 5.59881 22.7789 5.32584C23.2353 5.05287 23.7423 4.9483 24.2428 5.02391C24.7432 5.09952 25.2172 5.35231 25.6111 5.75375L28.9546 9.104C29.2801 9.42693 29.5435 9.84066 29.7247 10.3136C29.9059 10.7865 30.0001 11.306 30 11.8326Z" fill="#5595FF"/>
</svg>
