<svg width="35" height="35" viewBox="0 0 35 35" fill="none" xmlns="http://www.w3.org/2000/svg">
<path d="M29.658 14.9483L27.5691 13.0512L19.5578 5.7963C18.9833 5.2835 18.2396 5 17.4689 5C16.6981 5 15.9544 5.2835 15.3799 5.7963L7.38954 13.0928L5.30056 14.99C5.1599 15.1324 5.06326 15.3122 5.02218 15.5079C4.9811 15.7037 4.99731 15.9071 5.06888 16.0939C5.14045 16.2807 5.26436 16.443 5.42582 16.5615C5.58728 16.6799 5.77947 16.7495 5.97948 16.762C6.24404 16.75 6.49418 16.6383 6.67929 16.4493L7.02397 16.1366V26.8729C7.02397 27.7023 7.3541 28.4977 7.94174 29.0841C8.52938 29.6705 9.32639 30 10.1574 30H24.7803C25.6113 30 26.4083 29.6705 26.996 29.0841C27.5836 28.4977 27.9137 27.7023 27.9137 26.8729V16.1782L28.2584 16.491C28.45 16.6647 28.6994 16.7613 28.9582 16.762C29.1688 16.7614 29.3743 16.6974 29.5478 16.5782C29.7213 16.459 29.8546 16.2903 29.9302 16.0942C30.0059 15.898 30.0204 15.6837 29.9718 15.4792C29.9233 15.2747 29.8139 15.0896 29.658 14.9483Z" fill="#FAC638"/>
</svg>
