<svg width="35" height="35" viewBox="0 0 35 35" fill="none" xmlns="http://www.w3.org/2000/svg">
<path fill-rule="evenodd" clip-rule="evenodd" d="M28.0088 17.7562C28.0136 17.5842 28.0136 17.4122 28.0088 17.2402L29.7908 15.0139C29.9803 14.7768 30.0459 14.4638 29.9676 14.1706C29.675 13.0727 29.238 12.0184 28.6681 11.0354C28.5167 10.7746 28.2511 10.6006 27.9515 10.566L25.1184 10.2507C25.0006 10.1265 24.8811 10.007 24.7601 9.89235L24.4257 7.0521C24.3908 6.7523 24.2163 6.48661 23.9551 6.33546C22.9721 5.76604 21.9178 5.32985 20.8198 5.03836C20.5266 4.96003 20.2136 5.02564 19.9766 5.21513L17.7562 6.9876C17.5842 6.9876 17.4122 6.9876 17.2402 6.9876L15.0139 5.20916C14.7768 5.01966 14.4638 4.95405 14.1706 5.03239C13.0727 5.32504 12.0184 5.76202 11.0354 6.33188C10.7746 6.4833 10.6006 6.74895 10.566 7.04851L10.2507 9.88638C10.1265 10.005 10.007 10.1245 9.89235 10.2447L7.0521 10.5708C6.7523 10.6056 6.48661 10.7801 6.33546 11.0414C5.76616 12.0245 5.32959 13.0788 5.03717 14.1766C4.95916 14.47 5.02522 14.783 5.21513 15.0199L6.9876 17.2402C6.9876 17.4122 6.9876 17.5842 6.9876 17.7562L5.20916 19.9825C5.01966 20.2196 4.95405 20.5326 5.03239 20.8258C5.32504 21.9237 5.76202 22.978 6.33188 23.961C6.4833 24.2218 6.74895 24.3958 7.04851 24.4304L9.8816 24.7458C10.0002 24.87 10.1197 24.9894 10.2399 25.1041L10.5708 27.9443C10.6056 28.2441 10.7801 28.5098 11.0414 28.661C12.0245 29.2303 13.0788 29.6668 14.1766 29.9593C14.47 30.0373 14.783 29.9712 15.0199 29.7813L17.2402 28.0088C17.4122 28.0136 17.5842 28.0136 17.7562 28.0088L19.9825 29.7908C20.2196 29.9803 20.5326 30.0459 20.8258 29.9676C21.9239 29.6755 22.9782 29.2385 23.961 28.6681C24.2218 28.5167 24.3958 28.2511 24.4304 27.9515L24.7458 25.1184C24.87 25.0006 24.9894 24.8811 25.1041 24.7601L27.9443 24.4257C28.2441 24.3908 28.5098 24.2163 28.661 23.9551C29.2303 22.9719 29.6668 21.9176 29.9593 20.8198C30.0373 20.5264 29.9712 20.2134 29.7813 19.9766L28.0088 17.7562ZM17.4982 22.2758C14.8596 22.2758 12.7207 20.1368 12.7207 17.4982C12.7207 14.8596 14.8596 12.7207 17.4982 12.7207C20.1368 12.7207 22.2758 14.8596 22.2758 17.4982C22.2758 20.1368 20.1368 22.2758 17.4982 22.2758Z" fill="#FAC638"/>
</svg>
