<svg width="35" height="35" viewBox="0 0 35 35" fill="none" xmlns="http://www.w3.org/2000/svg">
<path d="M17.5 20C18.8807 20 20 18.8807 20 17.5C20 16.1193 18.8807 15 17.5 15C16.1193 15 15 16.1193 15 17.5C15 18.8807 16.1193 20 17.5 20Z" fill="#C6C6C6"/>
<path d="M28.298 18.5417L27.8787 18.3021C27.7231 18.2156 27.5941 18.0923 27.5045 17.9443C27.4149 17.7963 27.3678 17.6288 27.3678 17.4583C27.3678 17.2879 27.4149 17.1204 27.5045 16.9724C27.5941 16.8244 27.7231 16.7011 27.8787 16.6146L28.298 16.375C29.0563 15.961 29.6099 15.2801 29.8374 14.4815C30.0649 13.683 29.9479 12.8318 29.5119 12.1146L28.4084 10.3021C27.9679 9.5852 27.2438 9.06285 26.3953 8.84992C25.5469 8.63699 24.6436 8.75093 23.8841 9.16667L23.531 9.35417C23.368 9.43655 23.1856 9.47892 23.0007 9.47741C22.8158 9.47589 22.6342 9.43053 22.4727 9.34548C22.3112 9.26044 22.1749 9.13845 22.0764 8.99071C21.9779 8.84298 21.9203 8.67424 21.9089 8.5V8.125C21.9089 7.2962 21.5601 6.50134 20.9393 5.91529C20.3185 5.32924 19.4764 5 18.5985 5H16.3915C15.5135 5 14.6715 5.32924 14.0507 5.91529C13.4298 6.50134 13.0811 7.2962 13.0811 8.125V8.5C13.0778 8.6793 13.0256 8.85476 12.9294 9.00941C12.8332 9.16406 12.6964 9.29265 12.5322 9.38275C12.3679 9.47284 12.1818 9.52138 11.9919 9.52368C11.8019 9.52597 11.6145 9.48193 11.4479 9.39583L11.1058 9.16667C10.3464 8.75093 9.44306 8.63699 8.59461 8.84992C7.74616 9.06285 7.02206 9.5852 6.58157 10.3021L5.47809 12.1146C5.24824 12.4732 5.09716 12.8718 5.03384 13.2866C4.97052 13.7015 4.99625 14.1241 5.1095 14.5294C5.22274 14.9346 5.4212 15.3143 5.69305 15.6457C5.9649 15.977 6.3046 16.2534 6.69192 16.4583L7.11124 16.6979C7.26684 16.7844 7.39582 16.9077 7.48543 17.0557C7.57505 17.2037 7.62218 17.3712 7.62218 17.5417C7.62218 17.7121 7.57505 17.8796 7.48543 18.0276C7.39582 18.1756 7.26684 18.2989 7.11124 18.3854L6.69192 18.5417C5.93361 18.9557 5.38007 19.6366 5.15255 20.4351C4.92504 21.2337 5.0421 22.0848 5.47809 22.8021L6.58157 24.6146C6.79226 24.9765 7.07686 25.2955 7.41892 25.553C7.76099 25.8104 8.15372 26.0014 8.57443 26.1147C8.99514 26.228 9.43547 26.2615 9.86997 26.2132C10.3045 26.1649 10.7245 26.0358 11.1058 25.8333L11.4479 25.6562C11.6157 25.5648 11.806 25.5167 11.9997 25.5167C12.1934 25.5167 12.3836 25.5648 12.5514 25.6562C12.7129 25.7466 12.8474 25.8744 12.942 26.0275C13.0366 26.1806 13.0883 26.354 13.0921 26.5312V26.875C13.0921 27.7038 13.4409 28.4987 14.0617 29.0847C14.6825 29.6708 15.5246 30 16.4025 30H18.6095C19.4875 30 20.3295 29.6708 20.9503 29.0847C21.5712 28.4987 21.9199 27.7038 21.9199 26.875V26.4896C21.9249 26.3114 21.9782 26.1373 22.0748 25.9841C22.1714 25.8309 22.3081 25.7037 22.4717 25.6146C22.6394 25.5232 22.8297 25.475 23.0234 25.475C23.2171 25.475 23.4074 25.5232 23.5751 25.6146L23.9172 25.8021C24.6767 26.2178 25.58 26.3318 26.4284 26.1188C27.2769 25.9059 28.001 25.3835 28.4415 24.6667L29.545 22.8542C29.7682 22.4949 29.9131 22.0972 29.9712 21.6844C30.0293 21.2715 29.9993 20.8519 29.8832 20.4501C29.767 20.0484 29.5669 19.6726 29.2947 19.3448C29.0225 19.0171 28.6836 18.744 28.298 18.5417ZM17.495 21.6667C16.622 21.6667 15.7686 21.4223 15.0427 20.9645C14.3169 20.5066 13.7511 19.8559 13.4171 19.0945C13.083 18.3332 12.9956 17.4954 13.1659 16.6871C13.3362 15.8789 13.7566 15.1364 14.3739 14.5537C14.9912 13.971 15.7776 13.5742 16.6339 13.4134C17.4901 13.2526 18.3776 13.3351 19.1841 13.6505C19.9906 13.9659 20.68 14.4999 21.165 15.1851C21.65 15.8703 21.9089 16.6759 21.9089 17.5C21.9089 18.6051 21.4439 19.6649 20.6161 20.4463C19.7883 21.2277 18.6656 21.6667 17.495 21.6667Z" fill="#C6C6C6"/>
</svg>
