<svg width="35" height="35" viewBox="0 0 35 35" fill="none" xmlns="http://www.w3.org/2000/svg">
<path fill-rule="evenodd" clip-rule="evenodd" d="M30 28.913C30 29.5134 29.5695 30 29.0385 30H5.96154C5.4305 30 5 29.5134 5 28.913C5 28.3127 5.4305 27.8261 5.96154 27.8261H6.92308V19.1304C6.92308 18.5301 7.35357 18.0435 7.88462 18.0435H10.7692C11.3003 18.0435 11.7308 18.5301 11.7308 19.1304V27.8261H13.6538V12.6087C13.6538 12.0084 14.0843 11.5217 14.6154 11.5217H18.4615C18.9926 11.5217 19.4231 12.0084 19.4231 12.6087V27.8261H21.3462V6.08696C21.3462 5.48665 21.7766 5 22.3077 5H27.1154C27.6464 5 28.0769 5.48665 28.0769 6.08696V27.8261H29.0385C29.5695 27.8261 30 28.3127 30 28.913Z" fill="#5595FF"/>
</svg>
