<svg width="35" height="35" viewBox="0 0 35 35" fill="none" xmlns="http://www.w3.org/2000/svg">
<path d="M29.9999 16.4802H18.5198V5C21.485 5.23834 24.2686 6.52439 26.3721 8.62788C28.4756 10.7314 29.7616 13.5149 29.9999 16.4802Z" fill="#C6C6C6"/>
<path d="M30 18.5675C29.7923 20.9424 28.911 23.2087 27.4597 25.1001C26.0085 26.9914 24.0475 28.4293 21.8073 29.2447C19.5671 30.0601 17.1407 30.2191 14.8132 29.7031C12.4857 29.1872 10.3539 28.0176 8.66814 26.3319C6.98241 24.6461 5.81283 22.5143 5.29685 20.1868C4.78087 17.8593 4.93993 15.4329 5.75532 13.1927C6.57072 10.9525 8.00858 8.99152 9.89994 7.54026C11.7913 6.08901 14.0576 5.20773 16.4325 5V17.5238C16.4325 17.8006 16.5425 18.0661 16.7382 18.2618C16.9339 18.4575 17.1994 18.5675 17.4762 18.5675H30Z" fill="#C6C6C6"/>
</svg>
